<mxfile host="app.diagrams.net" agent="Mozilla/5.0 (Windows NT 10.0; Win64; x64) AppleWebKit/537.36 (KHTML, like Gecko) Chrome/139.0.0.0 Safari/537.36" version="28.0.7">
  <diagram name="Page-1" id="gamRS6MLA4fs2B-uqD5Q">
    <mxGraphModel grid="1" page="1" gridSize="10" guides="1" tooltips="1" connect="1" arrows="0" fold="1" pageScale="1" pageWidth="850" pageHeight="1100" math="0" shadow="0">
      <root>
        <mxCell id="0" />
        <mxCell id="1" parent="0" />
        <mxCell id="qD9gXsYjsShy9WRek7qx-5" style="edgeStyle=orthogonalEdgeStyle;rounded=0;orthogonalLoop=1;jettySize=auto;html=1;exitX=0.5;exitY=1;exitDx=0;exitDy=0;entryX=0.5;entryY=0;entryDx=0;entryDy=0;" edge="1" parent="1" source="sVo8eWBov2D_V9g_eI1e-1" target="qD9gXsYjsShy9WRek7qx-1">
          <mxGeometry relative="1" as="geometry" />
        </mxCell>
        <mxCell id="sVo8eWBov2D_V9g_eI1e-1" value="Inicio" style="rounded=1;whiteSpace=wrap;html=1;" vertex="1" parent="1">
          <mxGeometry x="321" y="70" width="80" height="30" as="geometry" />
        </mxCell>
        <mxCell id="sVo8eWBov2D_V9g_eI1e-14" value="&lt;font style=&quot;font-size: 20px;&quot;&gt;&lt;b&gt;Par o impar&lt;/b&gt;&lt;/font&gt;" style="text;html=1;align=center;verticalAlign=middle;whiteSpace=wrap;rounded=0;" vertex="1" parent="1">
          <mxGeometry x="40" y="20" width="660" height="30" as="geometry" />
        </mxCell>
        <mxCell id="8hqYzz6sfCtcbx5SEU-t-3" style="edgeStyle=none;curved=1;rounded=0;orthogonalLoop=1;jettySize=auto;html=1;exitX=0.5;exitY=1;exitDx=0;exitDy=0;entryX=0.5;entryY=0;entryDx=0;entryDy=0;fontSize=12;startSize=8;endSize=8;" edge="1" parent="1" source="qD9gXsYjsShy9WRek7qx-1" target="8hqYzz6sfCtcbx5SEU-t-2">
          <mxGeometry relative="1" as="geometry" />
        </mxCell>
        <mxCell id="qD9gXsYjsShy9WRek7qx-1" value="Leer número" style="rounded=0;whiteSpace=wrap;html=1;" vertex="1" parent="1">
          <mxGeometry x="320" y="127" width="80" height="40" as="geometry" />
        </mxCell>
        <mxCell id="fhB60b2QltupWCeUgBXA-5" value="Fin" style="rounded=1;whiteSpace=wrap;html=1;" vertex="1" parent="1">
          <mxGeometry x="300" y="588" width="80" height="30" as="geometry" />
        </mxCell>
        <mxCell id="8hqYzz6sfCtcbx5SEU-t-27" style="edgeStyle=orthogonalEdgeStyle;rounded=0;orthogonalLoop=1;jettySize=auto;html=1;exitX=0.5;exitY=1;exitDx=0;exitDy=0;entryX=0.5;entryY=0;entryDx=0;entryDy=0;fontSize=12;startSize=8;endSize=8;" edge="1" parent="1" source="I5g4T-FfKX0s-sWPSXJS-1" target="fhB60b2QltupWCeUgBXA-5">
          <mxGeometry relative="1" as="geometry">
            <Array as="points">
              <mxPoint x="235" y="510" />
              <mxPoint x="340" y="510" />
            </Array>
          </mxGeometry>
        </mxCell>
        <mxCell id="I5g4T-FfKX0s-sWPSXJS-1" value="Escribir:&lt;div&gt;&amp;nbsp;&quot;El número no es par ni impar&quot;&lt;/div&gt;" style="rounded=0;whiteSpace=wrap;html=1;" vertex="1" parent="1">
          <mxGeometry x="130" y="330" width="210" height="40" as="geometry" />
        </mxCell>
        <mxCell id="eM27uRVBK2D_l_hHfrWk-7" style="edgeStyle=orthogonalEdgeStyle;rounded=0;orthogonalLoop=1;jettySize=auto;html=1;exitX=0.5;exitY=1;exitDx=0;exitDy=0;entryX=0.5;entryY=0;entryDx=0;entryDy=0;" edge="1" parent="1" source="eM27uRVBK2D_l_hHfrWk-3" target="fhB60b2QltupWCeUgBXA-5">
          <mxGeometry relative="1" as="geometry">
            <Array as="points">
              <mxPoint x="735" y="510" />
              <mxPoint x="340" y="510" />
            </Array>
          </mxGeometry>
        </mxCell>
        <mxCell id="eM27uRVBK2D_l_hHfrWk-3" value="Escribir:&lt;div&gt;&amp;nbsp;&quot;El número es impar&quot;&lt;/div&gt;" style="rounded=0;whiteSpace=wrap;html=1;" vertex="1" parent="1">
          <mxGeometry x="670" y="400" width="130" height="40" as="geometry" />
        </mxCell>
        <mxCell id="8hqYzz6sfCtcbx5SEU-t-23" style="edgeStyle=orthogonalEdgeStyle;rounded=0;orthogonalLoop=1;jettySize=auto;html=1;exitX=1;exitY=0.5;exitDx=0;exitDy=0;entryX=0.5;entryY=0;entryDx=0;entryDy=0;fontSize=12;startSize=8;endSize=8;" edge="1" parent="1" source="8hqYzz6sfCtcbx5SEU-t-2" target="8hqYzz6sfCtcbx5SEU-t-4">
          <mxGeometry relative="1" as="geometry" />
        </mxCell>
        <mxCell id="8hqYzz6sfCtcbx5SEU-t-25" style="edgeStyle=orthogonalEdgeStyle;rounded=0;orthogonalLoop=1;jettySize=auto;html=1;exitX=0;exitY=0.5;exitDx=0;exitDy=0;entryX=0.5;entryY=0;entryDx=0;entryDy=0;fontSize=12;startSize=8;endSize=8;" edge="1" parent="1" source="8hqYzz6sfCtcbx5SEU-t-2" target="I5g4T-FfKX0s-sWPSXJS-1">
          <mxGeometry relative="1" as="geometry" />
        </mxCell>
        <mxCell id="8hqYzz6sfCtcbx5SEU-t-2" value="¿número = 0?" style="rhombus;whiteSpace=wrap;html=1;" vertex="1" parent="1">
          <mxGeometry x="300" y="200" width="120" height="80" as="geometry" />
        </mxCell>
        <mxCell id="8hqYzz6sfCtcbx5SEU-t-21" style="edgeStyle=none;curved=1;rounded=0;orthogonalLoop=1;jettySize=auto;html=1;exitX=0.5;exitY=1;exitDx=0;exitDy=0;entryX=0.5;entryY=0;entryDx=0;entryDy=0;fontSize=12;startSize=8;endSize=8;" edge="1" parent="1" source="8hqYzz6sfCtcbx5SEU-t-4" target="8hqYzz6sfCtcbx5SEU-t-26">
          <mxGeometry relative="1" as="geometry">
            <mxPoint x="530" y="411" as="targetPoint" />
          </mxGeometry>
        </mxCell>
        <mxCell id="8hqYzz6sfCtcbx5SEU-t-24" style="edgeStyle=orthogonalEdgeStyle;rounded=0;orthogonalLoop=1;jettySize=auto;html=1;exitX=1;exitY=0.5;exitDx=0;exitDy=0;entryX=0.5;entryY=0;entryDx=0;entryDy=0;fontSize=12;startSize=8;endSize=8;" edge="1" parent="1" source="8hqYzz6sfCtcbx5SEU-t-4" target="eM27uRVBK2D_l_hHfrWk-3">
          <mxGeometry relative="1" as="geometry" />
        </mxCell>
        <mxCell id="8hqYzz6sfCtcbx5SEU-t-4" value="¿número es par?" style="rhombus;whiteSpace=wrap;html=1;" vertex="1" parent="1">
          <mxGeometry x="470" y="280" width="120" height="80" as="geometry" />
        </mxCell>
        <mxCell id="8hqYzz6sfCtcbx5SEU-t-32" style="edgeStyle=orthogonalEdgeStyle;rounded=0;orthogonalLoop=1;jettySize=auto;html=1;exitX=0.5;exitY=1;exitDx=0;exitDy=0;entryX=0.5;entryY=0;entryDx=0;entryDy=0;fontSize=12;startSize=8;endSize=8;" edge="1" parent="1" source="8hqYzz6sfCtcbx5SEU-t-26" target="fhB60b2QltupWCeUgBXA-5">
          <mxGeometry relative="1" as="geometry">
            <Array as="points">
              <mxPoint x="531" y="510" />
              <mxPoint x="340" y="510" />
            </Array>
          </mxGeometry>
        </mxCell>
        <mxCell id="8hqYzz6sfCtcbx5SEU-t-26" value="Escribir:&lt;div&gt;&amp;nbsp;&quot;El número es par&quot;&lt;/div&gt;" style="rounded=0;whiteSpace=wrap;html=1;" vertex="1" parent="1">
          <mxGeometry x="458" y="426" width="145" height="40" as="geometry" />
        </mxCell>
        <mxCell id="8hqYzz6sfCtcbx5SEU-t-28" value="Si" style="text;html=1;align=center;verticalAlign=middle;resizable=0;points=[];autosize=1;strokeColor=none;fillColor=none;fontSize=14;" vertex="1" parent="1">
          <mxGeometry x="264" y="211" width="40" height="30" as="geometry" />
        </mxCell>
        <mxCell id="8hqYzz6sfCtcbx5SEU-t-29" value="&lt;font style=&quot;font-size: 14px;&quot;&gt;No&lt;/font&gt;" style="text;html=1;align=center;verticalAlign=middle;resizable=0;points=[];autosize=1;strokeColor=none;fillColor=none;fontSize=16;" vertex="1" parent="1">
          <mxGeometry x="414" y="211" width="40" height="30" as="geometry" />
        </mxCell>
        <mxCell id="8hqYzz6sfCtcbx5SEU-t-30" value="&lt;font style=&quot;font-size: 14px;&quot;&gt;No&lt;/font&gt;" style="text;html=1;align=center;verticalAlign=middle;resizable=0;points=[];autosize=1;strokeColor=none;fillColor=none;fontSize=16;" vertex="1" parent="1">
          <mxGeometry x="580" y="290" width="40" height="30" as="geometry" />
        </mxCell>
        <mxCell id="8hqYzz6sfCtcbx5SEU-t-31" value="Si" style="text;html=1;align=center;verticalAlign=middle;resizable=0;points=[];autosize=1;strokeColor=none;fillColor=none;fontSize=14;" vertex="1" parent="1">
          <mxGeometry x="530" y="360" width="40" height="30" as="geometry" />
        </mxCell>
      </root>
    </mxGraphModel>
  </diagram>
</mxfile>
